<svg width="32" height="32" viewBox="0 0 32 32" fill="none" xmlns="http://www.w3.org/2000/svg">
<circle cx="16" cy="16" r="16" fill="#D9D9D9" fill-opacity="0.2"/>
<path d="M14.75 16.5002C14.75 16.698 14.6914 16.8913 14.5815 17.0558C14.4716 17.2202 14.3154 17.3484 14.1327 17.4241C13.95 17.4998 13.7489 17.5196 13.5549 17.481C13.3609 17.4424 13.1827 17.3472 13.0429 17.2073C12.903 17.0675 12.8078 16.8893 12.7692 16.6953C12.7306 16.5013 12.7504 16.3003 12.8261 16.1175C12.9018 15.9348 13.03 15.7786 13.1944 15.6687C13.3589 15.5589 13.5522 15.5002 13.75 15.5002C14.0152 15.5002 14.2696 15.6056 14.4571 15.7931C14.6446 15.9806 14.75 16.235 14.75 16.5002ZM18.25 15.5002C18.0522 15.5002 17.8589 15.5589 17.6944 15.6687C17.53 15.7786 17.4018 15.9348 17.3261 16.1175C17.2504 16.3003 17.2306 16.5013 17.2692 16.6953C17.3078 16.8893 17.403 17.0675 17.5429 17.2073C17.6827 17.3472 17.8609 17.4424 18.0549 17.481C18.2489 17.5196 18.45 17.4998 18.6327 17.4241C18.8154 17.3484 18.9716 17.2202 19.0815 17.0558C19.1914 16.8913 19.25 16.698 19.25 16.5002C19.25 16.235 19.1446 15.9806 18.9571 15.7931C18.7696 15.6056 18.5152 15.5002 18.25 15.5002ZM23.0044 20.2852L18.8169 22.1421C18.6598 22.212 18.4901 22.2489 18.3182 22.2507C18.1463 22.2525 17.9758 22.2191 17.8173 22.1525C17.6588 22.086 17.5156 21.9876 17.3965 21.8636C17.2775 21.7396 17.1851 21.5925 17.125 21.4315L16.5913 19.9858C16.3956 19.9946 16.1994 20.0008 16.0006 20.0008C15.8019 20.0008 15.6056 19.9946 15.41 19.9858L14.875 21.4315C14.8146 21.5924 14.722 21.7393 14.6029 21.8632C14.4837 21.987 14.3405 22.0853 14.182 22.1518C14.0235 22.2183 13.8531 22.2518 13.6813 22.2501C13.5094 22.2485 13.3397 22.2117 13.1825 22.1421L8.995 20.2852C8.7251 20.1666 8.50601 19.9561 8.3767 19.6912C8.24738 19.4263 8.21622 19.1241 8.28875 18.8383L10.1344 11.5627C10.1946 11.3263 10.3227 11.1128 10.5028 10.9483C10.6829 10.7838 10.9073 10.6756 11.1481 10.6371L13.4019 10.2665C13.712 10.2169 14.0296 10.2843 14.2928 10.4557C14.556 10.6271 14.7462 10.8902 14.8263 11.194L15.1019 12.2821C15.3981 12.2615 15.6969 12.2502 16 12.2502C16.3031 12.2502 16.6019 12.2615 16.8981 12.2821L17.1738 11.194C17.2537 10.8902 17.4438 10.627 17.7071 10.4555C17.9703 10.2841 18.2879 10.2167 18.5981 10.2665L20.8519 10.6371C21.0927 10.6756 21.3171 10.7838 21.4972 10.9483C21.6773 11.1128 21.8054 11.3263 21.8656 11.5627L23.7113 18.8365C23.7842 19.1225 23.7532 19.4253 23.6238 19.6906C23.4943 19.9559 23.2748 20.1667 23.0044 20.2852ZM22.205 19.0002L20.4519 12.0915L18.5725 11.7827L18.395 12.4808C18.5763 12.5171 18.7563 12.5558 18.9331 12.6008C19.0301 12.6235 19.1216 12.6652 19.2022 12.7236C19.2829 12.782 19.3511 12.8559 19.4029 12.9409C19.4547 13.0259 19.489 13.1204 19.504 13.2189C19.5189 13.3173 19.514 13.4177 19.4897 13.5143C19.4654 13.6109 19.4221 13.7016 19.3623 13.7812C19.3026 13.8609 19.2276 13.9278 19.1417 13.9782C19.0558 14.0285 18.9607 14.0613 18.862 14.0745C18.7633 14.0877 18.663 14.0812 18.5669 14.0552C17.727 13.8485 16.8649 13.746 16 13.7502C15.1351 13.746 14.273 13.8485 13.4331 14.0552C13.2416 14.1 13.0401 14.0677 12.8722 13.9654C12.7042 13.863 12.5831 13.6988 12.5351 13.5081C12.4871 13.3173 12.5159 13.1153 12.6154 12.9456C12.7148 12.7759 12.877 12.6521 13.0669 12.6008C13.2438 12.5558 13.4238 12.5171 13.605 12.4808L13.4281 11.7827L11.5481 12.0915L9.795 19.0002L13.5588 20.669L13.8713 19.8208C13.5981 19.7733 13.3294 19.7177 13.0663 19.6515C12.9707 19.6274 12.8809 19.5848 12.8018 19.526C12.7227 19.4672 12.656 19.3935 12.6055 19.3089C12.5034 19.1381 12.4733 18.9338 12.5219 18.7408C12.5704 18.5479 12.6937 18.3821 12.8644 18.2801C13.0352 18.178 13.2396 18.1479 13.4325 18.1965C14.2726 18.4028 15.1349 18.5048 16 18.5002C16.8649 18.5044 17.727 18.4019 18.5669 18.1952C18.7598 18.1466 18.9642 18.1767 19.1349 18.2788C19.3057 18.3809 19.4289 18.5466 19.4775 18.7396C19.5261 18.9325 19.496 19.1369 19.3939 19.3076C19.2918 19.4784 19.1261 19.6016 18.9331 19.6502C18.67 19.7165 18.4013 19.7721 18.1281 19.8196L18.4406 20.6677L22.205 19.0002Z" fill="white"/>
</svg>
