<svg width="32" height="32" viewBox="0 0 32 32" fill="none" xmlns="http://www.w3.org/2000/svg">
<circle cx="16" cy="16" r="16" fill="#D9D9D9" fill-opacity="0.2"/>
<path d="M23.2186 10.1972C23.1067 10.1007 22.9705 10.0365 22.8248 10.0116C22.6791 9.98671 22.5294 10.002 22.3917 10.0559L9.72548 15.0128C9.49559 15.1024 9.30099 15.2641 9.17097 15.4738C9.04095 15.6835 8.98254 15.9297 9.00453 16.1754C9.02653 16.4212 9.12773 16.6531 9.29292 16.8364C9.45811 17.0196 9.67834 17.1443 9.92048 17.1916L13.0005 17.7959V21.2497C13.0005 21.4989 13.075 21.7424 13.2143 21.9489C13.3537 22.1555 13.5517 22.3157 13.7828 22.4089C14.0138 22.5022 14.2675 22.5242 14.5112 22.4722C14.7549 22.4202 14.9776 22.2966 15.1505 22.1172L16.5674 20.6478L18.8974 22.6872C19.0599 22.8301 19.2568 22.9284 19.4687 22.9724C19.6806 23.0164 19.9003 23.0047 20.1063 22.9383C20.3123 22.8719 20.4976 22.7531 20.6439 22.5936C20.7902 22.4341 20.8926 22.2394 20.9411 22.0284L23.4799 10.9941C23.5129 10.85 23.506 10.6997 23.46 10.5593C23.414 10.4189 23.3305 10.2937 23.2186 10.1972ZM17.4636 13.5947L13.5767 16.3803L11.4249 15.9584L17.4636 13.5947ZM14.5005 20.6284V18.8341L15.438 19.6559L14.5005 20.6284ZM19.573 21.2859L14.9555 17.2378L21.5999 12.4766L19.573 21.2859Z" fill="white"/>
</svg>
