<svg width="32" height="32" viewBox="0 0 32 32" fill="none" xmlns="http://www.w3.org/2000/svg">
<circle cx="16" cy="16" r="16" fill="#D9D9D9" fill-opacity="0.2"/>
<path d="M21.6325 21.0975L17.82 15.11L21.5525 11.0044C21.6835 10.8567 21.751 10.6634 21.7404 10.4664C21.7298 10.2693 21.6419 10.0843 21.4959 9.95161C21.3498 9.81888 21.1573 9.74907 20.9601 9.75731C20.763 9.76555 20.577 9.85117 20.4425 9.99563L16.9881 13.7981L14.6325 10.0975C14.5648 9.99106 14.4714 9.90341 14.3608 9.84267C14.2502 9.78193 14.1261 9.75006 14 9.75H11C10.8657 9.75006 10.7338 9.78621 10.6182 9.85467C10.5026 9.92313 10.4075 10.0214 10.3429 10.1392C10.2782 10.2569 10.2464 10.3899 10.2507 10.5242C10.2551 10.6585 10.2954 10.7891 10.3675 10.9025L14.18 16.89L10.445 20.9956C10.3774 21.0683 10.3248 21.1536 10.2904 21.2467C10.256 21.3398 10.2405 21.4388 10.2446 21.538C10.2488 21.6371 10.2725 21.7345 10.3146 21.8244C10.3566 21.9143 10.4161 21.9949 10.4895 22.0617C10.563 22.1284 10.649 22.18 10.7425 22.2132C10.836 22.2465 10.9351 22.2609 11.0342 22.2556C11.1334 22.2502 11.2304 22.2253 11.3198 22.1822C11.4092 22.1391 11.4891 22.0786 11.555 22.0044L15.0119 18.2019L17.3675 21.9025C17.4352 22.0089 17.5287 22.0966 17.6392 22.1573C17.7498 22.2181 17.8739 22.2499 18 22.25H21C21.1344 22.2499 21.2662 22.2138 21.3818 22.1453C21.4974 22.0769 21.5925 21.9786 21.6572 21.8608C21.7218 21.7431 21.7536 21.6101 21.7493 21.4758C21.7449 21.3415 21.7046 21.2109 21.6325 21.0975ZM18.4119 20.75L12.3663 11.25H13.5881L19.6338 20.75H18.4119Z" fill="white"/>
</svg>
