<svg width="83" height="80" viewBox="0 0 83 80" fill="none" xmlns="http://www.w3.org/2000/svg">
<path d="M46.8257 29.9713C46.8615 28.9833 47.1899 28.0175 47.7693 27.1961C48.3486 26.3746 49.153 25.7344 50.0806 25.3563C51.0082 24.9782 52.0175 24.8793 52.9807 25.072C53.9439 25.2648 54.8178 25.7405 55.4919 26.4391C56.1661 27.1377 56.6101 28.0278 56.768 28.9967C56.9258 29.9657 56.7903 30.9701 56.3787 31.8828C55.967 32.7956 55.2976 33.5757 54.4552 34.1246C53.6128 34.6735 52.6352 34.9665 51.646 34.9665C50.3195 34.9665 49.0665 34.4402 48.1625 33.5034C47.2585 32.5666 46.7776 31.2961 46.8257 29.9713ZM76.0374 17.4833L74.4066 62.44C74.3465 64.0961 73.6302 65.6842 72.4153 66.8552C71.2003 68.0262 69.5863 68.684 67.9282 68.684H12.9115C11.2534 68.684 9.68708 68.0262 8.5571 66.8552C7.42712 65.6842 6.82605 64.0961 6.88613 62.44L8.51696 17.4833C8.57704 15.8272 9.29333 14.2391 10.5083 13.0681C11.7232 11.8971 13.3373 11.2393 14.9954 11.2393H70.012C71.6701 11.2393 73.2365 11.8971 74.3664 13.0681C75.4964 14.2391 76.0975 15.8272 76.0374 17.4833ZM15.9739 18.7321L15.0711 43.6206L26.039 33.0495C27.2539 31.879 28.8676 31.2214 30.5254 31.2214C32.1832 31.2214 33.7493 31.879 34.8792 33.0495L47.2828 45.8934L52.8476 40.533C54.0625 39.3624 55.6763 38.7048 57.334 38.7048C58.9918 38.7048 60.5579 39.3624 61.6878 40.533L67.4809 46.5459L68.4898 18.7321H15.9739ZM14.4337 61.1912H51.4262L30.2349 39.2311L14.6867 54.2167L14.4337 61.1912ZM66.9496 61.1912L67.0968 57.1326L57.0435 46.7145L52.395 51.2008L62.0356 61.1912H66.9496Z" fill="#D2CFCF"/>
</svg>
