<svg width="1456" height="895" viewBox="0 0 1456 895" fill="none" xmlns="http://www.w3.org/2000/svg">
<path d="M2 894.518L2 19.4818M46 894.518V19.4818M90 894.518V19.4818M134 894.518V19.4818M178 894.518V19.4818M222 894.518V19.4818M266 894.518V19.4818M310 894.518V19.4818M354 894.518V19.4818M398 894.518V19.4818M442 894.518V19.4818M486 894.518V19.4818M530 894.518V19.4818M574 894.518V19.4818M618 894.518V19.4818M662 894.518V19.4818M706 894.518V19.4818M750 894.518V19.4818M794 894.518V19.4818M838 894.518V19.4818M882 894.518V19.4818M926 894.518V19.4818M970 894.518V19.4818M1014 894.518V19.4818M1058 894.518V19.4818M1102 894.518V19.4818M1146 894.518V19.4818M1190 894.518V19.4818M1234 894.518V19.4818M1278 894.518V19.4818M1322 894.518V19.4818M1366 894.518V19.4818M1410 894.518V19.4818M1454 894.518V19.4818M8.5 2H1454.5M8.5 46H1454.5M8.5 90H1454.5M8.5 134H1454.5M8.5 178H1454.5M8.5 222H1454.5M8.5 266H1454.5M8.5 310H1454.5M8.5 354H1454.5M8.5 398H1454.5M8.5 442H1454.5M8.5 486H1454.5M8.5 530H1454.5M8.5 574H1454.5M8.5 618H1454.5M8.5 662H1454.5M8.5 706H1454.5M8.5 750H1454.5M8.5 794H1454.5M8.5 838H1454.5M8.5 882H1454.5" stroke="url(#paint0_radial_1_31)" stroke-opacity="0.1" stroke-width="4"/>
<defs>
<radialGradient id="paint0_radial_1_31" cx="0" cy="0" r="1" gradientUnits="userSpaceOnUse" gradientTransform="translate(728.25 448.259) rotate(89.958) scale(341.241 555.341)">
<stop stop-color="white" stop-opacity="0.8"/>
<stop offset="1" stop-color="white" stop-opacity="0.05"/>
</radialGradient>
</defs>
</svg>
